<svg xmlns="http://www.w3.org/2000/svg" viewBox="0 0 128 128">
  <path d="M44 16 Q40 26 48 32 Q52 38 48 46" stroke="#E76F00" stroke-width="4" stroke-linecap="round" fill="none"/>
  <path d="M64 12 Q60 22 68 28 Q72 34 68 42" stroke="#E76F00" stroke-width="4" stroke-linecap="round" fill="none"/>
  <path d="M84 16 Q80 26 88 32 Q92 38 88 46" stroke="#E76F00" stroke-width="4" stroke-linecap="round" fill="none"/>
  <path d="M22 56 L106 56 L100 96 Q98 110 84 110 L44 110 Q30 110 28 96 Z" fill="#5382A1" stroke="#1F4E79" stroke-width="2"/>
  <path d="M106 64 Q120 68 118 80 Q116 90 102 92" fill="none" stroke="#5382A1" stroke-width="5" stroke-linecap="round"/>
  <ellipse cx="64" cy="56" rx="42" ry="6" fill="#1F4E79"/>
  <rect x="20" y="116" width="88" height="8" rx="3" fill="#E76F00"/>
</svg>
